<?xml version="1.0" encoding="UTF-8" standalone="no"?>
<!-- Created with Inkscape (http://www.inkscape.org/) -->
<svg
   xmlns:dc="http://purl.org/dc/elements/1.1/"
   xmlns:cc="http://web.resource.org/cc/"
   xmlns:rdf="http://www.w3.org/1999/02/22-rdf-syntax-ns#"
   xmlns:svg="http://www.w3.org/2000/svg"
   xmlns="http://www.w3.org/2000/svg"
   xmlns:sodipodi="http://inkscape.sourceforge.net/DTD/sodipodi-0.dtd"
   xmlns:inkscape="http://www.inkscape.org/namespaces/inkscape"
   width="600"
   height="600"
   id="svg2"
   sodipodi:version="0.32"
   inkscape:version="0.43"
   version="1.0"
   sodipodi:docbase="C:\Documents and Settings\Alexander Bito\My Documents\Wikipedia Highways\Elongated circle shields\Elongated circle shields 3"
   sodipodi:docname="Elongated circle 37.svg">
  <defs
     id="defs4" />
  <sodipodi:namedview
     id="base"
     pagecolor="#ffffff"
     bordercolor="#666666"
     borderopacity="1.0"
     inkscape:pageopacity="0.0"
     inkscape:pageshadow="2"
     inkscape:zoom="0.5"
     inkscape:cx="300"
     inkscape:cy="300"
     inkscape:document-units="px"
     inkscape:current-layer="layer1"
     inkscape:window-width="756"
     inkscape:window-height="706"
     inkscape:window-x="0"
     inkscape:window-y="0" />
  <metadata
     id="metadata7">
    <rdf:RDF>
      <cc:Work
         rdf:about="">
        <dc:format>image/svg+xml</dc:format>
        <dc:type
           rdf:resource="http://purl.org/dc/dcmitype/StillImage" />
      </cc:Work>
    </rdf:RDF>
  </metadata>
  <g
     inkscape:label="Layer 1"
     inkscape:groupmode="layer"
     id="layer1">
    <path
       style=""
       d="M 0,50 C 0,22.38574 22.3853,0 50,0 L 550,0 C 577.6143,0 600,22.38574 600,50 L 600,550 C 600,577.6152 577.6143,600 550,600 L 50,600 C 22.3853,600 0,577.6152 0,550 L 0,50 L 0,50 z "
       id="path5" />
    <path
       style=""
       d=""
       id="path7" />
    <path
       style="fill:#ffffff"
       d="M 587.49999,299.99998 C 587.49999,458.69998 458.69999,587.50001 299.99999,587.50001 C 141.29999,587.50001 12.499987,458.69998 12.499987,299.99998 C 12.499987,141.29998 141.29999,12.499981 299.99999,12.499981 C 458.69999,12.499981 587.49999,141.29998 587.49999,299.99998 z "
       id="circle11" />
    <path
       style="fill:#ffffff"
       d=""
       id="path1446" />
    <path
       style="font-size:450px;font-style:normal;font-variant:normal;font-weight:normal;font-stretch:normal;text-align:center;line-height:100%;writing-mode:lr-tb;text-anchor:middle;font-family:Roadgeek 2005 Series C"
       d="M 282.09504,369.3 C 282.09486,381.60007 279.99486,393.15006 275.79504,403.95 C 271.59487,414.45004 265.74487,423.60003 258.24504,431.4 C 251.04489,439.20001 242.1949,445.35001 231.69504,449.85 C 221.49492,454.05 210.39493,456.14999 198.39504,456.15 C 186.09495,456.14999 174.84496,454.05 164.64504,449.85 C 154.74498,445.65001 146.04499,439.80001 138.54504,432.3 C 131.34501,424.80003 125.49501,415.95003 120.99504,405.75 C 116.79502,395.25006 114.39503,383.85007 113.79504,371.55 L 156.09504,371.55 C 157.29498,383.85007 161.64498,394.05006 169.14504,402.15 C 176.94496,409.95004 186.69495,413.85004 198.39504,413.85 C 210.69493,413.85004 220.74492,409.65004 228.54504,401.25 C 236.6449,392.55006 240.6949,381.90007 240.69504,369.3 C 240.6949,361.20009 239.6449,353.7001 237.54504,346.8 C 235.4449,339.60011 232.59491,333.45012 228.99504,328.35 C 225.39491,322.95013 221.19492,318.75013 216.39504,315.75 C 211.89493,312.75014 206.94493,311.25014 201.54504,311.25 L 180.39504,311.25 L 180.39504,269.85 L 198.39504,269.85 C 203.79494,269.85018 207.84493,268.95018 210.54504,267.15 C 213.54493,265.35019 216.84492,262.35019 220.44504,258.15 C 229.14491,248.5502 233.49491,237.30021 233.49504,224.4 C 233.49491,212.70024 230.19491,203.40025 223.59504,196.5 C 217.29492,189.60026 208.89493,186.15026 198.39504,186.15 C 188.79495,186.15026 181.14496,189.00026 175.44504,194.7 C 170.04497,200.10025 166.74497,207.90024 165.54504,218.1 L 123.24504,212.7 C 124.44502,202.80025 127.14501,193.65026 131.34504,185.25 C 135.545,176.55027 140.945,169.20028 147.54504,163.2 C 154.14499,157.20029 161.79498,152.5503 170.49504,149.25 C 179.19496,145.65031 188.49495,143.85031 198.39504,143.85 C 209.19493,143.85031 219.24492,145.8003 228.54504,149.7 C 237.8449,153.6003 245.79489,159.15029 252.39504,166.35 C 259.29488,173.25028 264.69488,181.50027 268.59504,191.1 C 272.49487,200.40025 274.44487,210.45024 274.44504,221.25 C 274.44487,233.85022 272.34487,245.55021 268.14504,256.35 C 264.24488,267.15018 257.19488,278.40017 246.99504,290.1 C 258.69488,300.60015 267.39487,312.60014 273.09504,326.1 C 279.09486,339.60011 282.09486,354.0001 282.09504,369.3 M 477.45129,191.55 C 463.95113,206.85024 451.95114,224.25023 441.45129,243.75 C 430.95116,262.95019 421.50117,284.70017 413.10129,309 C 405.00119,332.10012 399.15119,354.7501 395.55129,376.95 C 391.9512,398.85005 389.5512,423.45003 388.35129,450.75 L 346.05129,450.75 L 346.05129,444.45 C 346.05125,436.95001 346.50125,428.25002 347.40129,418.35 C 348.30125,408.45004 349.50124,398.25005 351.00129,387.75 C 352.80124,376.95007 354.75124,366.15008 356.85129,355.35 C 358.95123,344.25011 361.35123,333.75012 364.05129,323.85 C 367.35123,311.85014 370.80122,300.45015 374.40129,289.65 C 378.30122,278.55017 382.50121,267.75018 387.00129,257.25 C 391.8012,246.7502 397.0512,236.25021 402.75129,225.75 C 408.45119,214.95024 415.05118,203.55025 422.55129,191.55 L 309.15129,191.55 L 309.15129,149.25 L 477.45129,149.25 L 477.45129,191.55 L 477.45129,191.55"
       id="text1327" />
    <path
       style="fill:none;stroke:#000000;stroke-width:0.99826401;stroke-miterlimit:4;stroke-opacity:1"
       d="M 587.00096,299.99995 C 587.00096,458.42445 458.42452,587.00086 300.00002,587.00086 C 141.57555,587.00086 12.999144,458.42445 12.999144,299.99995 C 12.999144,141.57545 141.57555,12.999044 300.00002,12.999044 C 458.42452,12.999044 587.00096,141.57545 587.00096,299.99995 z "
       id="circle1313" />
    <path
       style="fill:none;stroke:#000000;stroke-width:0.99826401;stroke-miterlimit:4;stroke-opacity:1"
       d=""
       id="path1315" />
  </g>
</svg>
